<?xml version="1.0" encoding="UTF-8" standalone="no"?>
<svg width="1010px" height="400px" viewBox="0 0 1010 400" version="1.1" xmlns="http://www.w3.org/2000/svg" xmlns:xlink="http://www.w3.org/1999/xlink" xmlns:sketch="http://www.bohemiancoding.com/sketch/ns">
    <title>SAVI Logo</title>
    <desc>Created by Cedric Monroe.</desc>
    <defs></defs>
        <g id="SAVI-Logo" sketch:type="MSArtboardGroup" fill="#9EA3AA">
            <path d="M986.796321,364.693712 C998.537343,364.693712 1004.40777,368.249109 1004.40777,375.36001 L1004.40777,384.131636 C1004.40777,391.148972 998.537343,394.657588 986.796321,394.657588 L944.627085,394.657588 L944.627085,387.359595 L986.796321,387.359595 C992.316005,387.359595 995.075805,386.283619 995.075805,384.131636 L995.075805,375.36001 C995.075805,373.114462 992.316005,371.991705 986.796321,371.991705 L960.554567,371.991705 C948.813545,371.991705 942.943122,368.436308 942.943122,361.325408 L942.943122,355.922086 C942.943122,348.811185 948.813545,345.255788 960.554567,345.255788 L1001.3205,345.255788 L1001.3205,352.553782 L960.554567,352.553782 C955.034883,352.553782 952.275083,353.676538 952.275083,355.922086 L952.275083,361.325408 C952.275083,363.570955 955.034883,364.693712 960.554567,364.693712 L986.796321,364.693712 Z M886.811027,345.255788 L896.213153,345.255788 L896.213153,387.359595 L936.277436,387.359595 L936.277436,394.657588 L886.811027,394.657588 L886.811027,345.255788 Z M861.972575,387.359595 C867.492259,387.359595 870.252059,386.283619 870.252059,384.131636 L870.252059,355.922086 C870.252059,353.676538 867.492259,352.553782 861.972575,352.553782 L833.625867,352.553782 C828.106184,352.553782 825.346383,353.676538 825.346383,355.922086 L825.346383,383.99129 C825.346383,386.236838 828.106184,387.359595 833.625867,387.359595 L861.972575,387.359595 Z M816.014422,355.922086 C816.014422,348.811185 821.884845,345.255788 833.625867,345.255788 L861.972575,345.255788 C873.713597,345.255788 879.58402,348.811185 879.58402,355.922086 L879.58402,384.131636 C879.58402,391.148972 873.713597,394.657588 861.972575,394.657588 L833.625867,394.657588 C821.884845,394.657588 816.014422,391.102191 816.014422,383.99129 L816.014422,355.922086 Z M753.80225,394.657588 L753.80225,345.255788 L792.884221,345.255788 C804.625243,345.255788 810.495666,348.811185 810.495666,355.922086 L810.495666,361.956965 C810.495666,367.89831 806.42613,371.360143 798.286935,372.34257 L810.00451,394.657588 L800.041063,394.657588 L788.463819,372.623263 L763.134211,372.623263 L763.134211,394.657588 L753.80225,394.657588 Z M763.134211,352.553782 L763.134211,365.325269 L792.884221,365.325269 C798.403905,365.325269 801.163705,364.202512 801.163705,361.956965 L801.163705,355.922086 C801.163705,353.676538 798.403905,352.553782 792.884221,352.553782 L763.134211,352.553782 Z M687.145387,345.255788 L747.557555,345.255788 L747.557555,352.553782 L722.368277,352.553782 L722.368277,394.657588 L713.036316,394.657588 L713.036316,352.553782 L687.145387,352.553782 L687.145387,345.255788 Z M624.347606,357.044854 L624.347606,394.657588 L615.506801,394.657588 L615.506801,345.255788 L622.874139,345.255788 L672.059887,383.149214 L672.059887,345.255788 L680.900692,345.255788 L680.900692,394.657588 L673.533354,394.657588 L624.347606,357.044854 Z M543.377059,355.922086 C543.377059,348.811185 549.247482,345.255788 560.988504,345.255788 L589.335212,345.255788 C601.076234,345.255788 606.946657,348.811185 606.946657,355.922086 L606.946657,384.131636 C606.946657,391.148972 601.076234,394.657588 589.335212,394.657588 L560.988504,394.657588 C549.247482,394.657588 543.377059,391.102191 543.377059,383.99129 L543.377059,355.922086 Z M589.335212,387.359595 C594.854896,387.359595 597.614696,386.283619 597.614696,384.131636 L597.614696,355.922086 C597.614696,353.676538 594.854896,352.553782 589.335212,352.553782 L560.988504,352.553782 C555.46882,352.553782 552.70902,353.676538 552.70902,355.922086 L552.70902,383.99129 C552.70902,386.236838 555.46882,387.359595 560.988504,387.359595 L589.335212,387.359595 Z M538.532967,387.359595 L538.532967,394.657588 L500.854299,394.657588 C489.113277,394.657588 483.242854,390.868283 483.242854,383.28956 L483.242854,356.623816 C483.242854,349.045093 489.113277,345.255788 500.854299,345.255788 L538.532967,345.255788 L538.532967,352.553782 L500.854299,352.553782 C495.334615,352.553782 492.574815,353.910446 492.574815,356.623816 L492.574815,383.28956 C492.574815,386.00293 495.334615,387.359595 500.854299,387.359595 L538.532967,387.359595 Z" id="CONTROLS" sketch:type="MSShapeGroup"></path>
            <path d="M946.896024,67.8472906 L1005,67.8472906 L1005,314.85468 L946.896024,314.85468 L946.896024,67.8472906 Z M906.070318,6.7635468 L741.697229,250.334975 L577.32414,6.7635468 L513.868483,6.7635468 L722.889908,314.85468 L761.116208,314.85468 L946.896024,39.9778325 L946.896024,55.6305419 L1005,55.8754883 L1005,6.7635468 L906.070318,6.7635468 Z M362.798165,145.927594 L362.798165,236.591133 L477.75541,66.6350004 L645.443388,314.85468 L706.376165,314.85468 L498.119266,6.7635468 L456.834862,6.7635468 L362.798165,145.927594 Z M57.1606881,77.3730228 C57.1606881,53.4996077 86.4548807,56.6839606 103.282295,56.1572503 C120.109709,55.6305401 408.058113,55.6305419 408.058113,55.6305419 L441.07034,6.7635468 L111.269113,6.76354681 C51.0499587,6.76354681 5.1740438,8.28864129 5.1740438,72.2392118 L5,101.236887 C5,149.318012 34.8165138,175.65088 86.4548821,175.631778 C138.09325,175.612675 257.947628,175.65088 257.947628,175.65088 C289.40367,175.65088 298.564206,180.892143 298.564206,202.21298 L298.564216,232.009852 C298.564216,243.550182 298.564216,261.722211 254.235474,261.722211 C209.906732,261.722211 5.51259475,261.722207 5.51259475,261.722207 L5.48875313,314.798649 L255.272599,314.82014 C289.041864,314.82014 351.859755,314.82014 351.859755,235.630508 L351.859755,197.437342 C351.859755,147.890096 351.492594,121.332772 256.147586,121.332772 L102.664797,121.332772 C74.5718654,121.332768 57.1606889,116.446073 57.1606889,91.5172414 L57.1606881,77.3730228 Z" id="SAVI" sketch:type="MSShapeGroup"></path>
    </g>
</svg>
